<svg xmlns="http://www.w3.org/2000/svg" width="100" height="100" viewBox="0 0 100 100"><title>hannunvaakuna3</title><rect x="46.91" y="41.24" width="5.88" height="17.52" transform="translate(120.45 50.11) rotate(135)" fill="#ffa900"/><rect x="46.54" y="4.34" width="5.88" height="17.52" transform="translate(62.59 -36.38) rotate(90)" fill="#8d309b"/><rect x="46.46" y="77.13" width="5.88" height="17.52" transform="translate(135.29 36.49) rotate(90)" fill="#8d309b"/><rect x="46.91" y="41.24" width="5.88" height="17.52" transform="translate(49.74 120.6) rotate(-135)" fill="#ffa900"/><rect x="68" y="47" width="31" height="6" fill="#8d309b"/><rect x="83.81" y="41.24" width="5.88" height="17.52" transform="translate(173.49 100) rotate(180)" fill="#8d309b"/><rect x="10.02" y="41.24" width="5.88" height="17.52" transform="translate(25.91 100) rotate(180)" fill="#8d309b"/><rect x="47" y="3" width="5" height="29" fill="#8d309b"/><rect x="47" y="69" width="5" height="30" fill="#8d309b"/><rect x="2" y="47" width="29" height="6" fill="#8d309b"/><path d="M33,71.87a5.26,5.26,0,0,1-5.22,5.46,5.11,5.11,0,0,1-5.34-5.16A5.31,5.31,0,0,1,28,67H64V61H28a11.16,11.16,0,1,0-.17,22.32A11.28,11.28,0,0,0,39,71.87V69H33Z" fill="#010059"/><path d="M72.76,61H68v6h4.76a5.2,5.2,0,0,1,5.46,5.14c0,3-3.09,5.3-6.11,5.3S66,74.84,66,71.83V39H60V71.83c0,6.26,5.79,11.34,12,11.34S84,78.34,84,72.08A11,11,0,0,0,72.76,61Z" fill="#010059"/><path d="M71.66,17A11.62,11.62,0,0,0,60,28.34V33h6V28.34a5.66,5.66,0,0,1,11.31.1A5.43,5.43,0,0,1,72,34H37v6H72A11.33,11.33,0,0,0,83.15,28.51,11.61,11.61,0,0,0,71.66,17Z" fill="#010059"/><path d="M27.45,17A11.76,11.76,0,0,0,15.81,28.52,11.54,11.54,0,0,0,27.24,40H31V34H27.24a5.53,5.53,0,0,1-5.46-5.54A5.62,5.62,0,0,1,27.39,23,5.55,5.55,0,0,1,33,28.38V64h6V28.38A11.55,11.55,0,0,0,27.45,17Z" fill="#010059"/><path d="M50,5A45,45,0,1,1,5,50,45.05,45.05,0,0,1,50,5m0-5a50,50,0,1,0,50,50A50,50,0,0,0,50,0Z" fill="#207dff"/></svg>