<svg xmlns="http://www.w3.org/2000/svg" width="98" height="98" viewBox="0 0 98 98"><title>hannunvaakuna2</title><path d="M82,1A17,17,0,0,0,65,18v6h8V18a8.72,8.72,0,0,1,8.75-8.5,8.82,8.82,0,0,1,8.63,8.75A8.61,8.61,0,0,1,82,27H38v8H82A17,17,0,0,0,82,1Z" transform="translate(-1 -1)" fill="#010059"/><path d="M27,82a8.72,8.72,0,0,1-8.75,8.5,8.82,8.82,0,0,1-8.62-8.75A8.61,8.61,0,0,1,18,73H62V65H18A17,17,0,1,0,35,82V76H27Z" transform="translate(-1 -1)" fill="#ffa900"/><path d="M82,65H76v8h6a8.72,8.72,0,0,1,8.5,8.75,8.82,8.82,0,0,1-8.75,8.63A8.61,8.61,0,0,1,73,82V38H65V82A17,17,0,1,0,82,65Z" transform="translate(-1 -1)" fill="#207dff"/><path d="M18.25,9.63A8.61,8.61,0,0,1,27,18V62h8V18A17,17,0,1,0,18,35h6V27H18a8.72,8.72,0,0,1-8.5-8.75A8.82,8.82,0,0,1,18.25,9.63Z" transform="translate(-1 -1)" fill="#8d309b"/><path d="M50,38A12,12,0,0,0,38,50c0-.1,0-.21,0-.31s0-.21,0-.31A6,6,0,0,1,44,44h.31l.24,0h.13l.22,0,.28,0h0l.17,0,.11,0,.08,0,.09,0,.1,0,.18.06.18.06.18.07.17.08.34.17h0l.15.08A6,6,0,0,1,50,50s0,0,0,0a6,6,0,0,0,6-10.43l0,0A11.94,11.94,0,0,0,50,38Zm2.56.82h0l-.21,0Z" transform="translate(-1 -1)" fill="#ffa900"/><path d="M44,44a6,6,0,0,0-6,6A12,12,0,0,0,56,60.41l-.24.13,0,0-.08,0-.47.21-.25.09h0L54.6,61h0l-.55.12-.29,0h-.09l-.21,0h-.85l-.18,0h-.12l-.27,0h0L51.66,61l-.46-.12h-.06l-.53-.2h0l-.09,0-.17-.08-.25-.13h0L50,60.38l-.13-.08-.24-.15h0L49.37,60h0l-.13-.1-.1-.08-.22-.19h0c-.14-.13-.28-.27-.41-.42h0L48.31,59h0l0-.06-.14-.18-.17-.25-.16-.26-.1-.18,0,0,0-.09-.11-.24-.07-.17,0-.11-.07-.2,0-.06-.06-.19,0-.12v0l0-.11,0-.1,0-.19c0-.19-.06-.38-.08-.57s0-.25,0-.38,0-.13,0-.19A6,6,0,0,1,50,50l0,0,0,0s0,0,0,0A6,6,0,0,0,44,44Z" transform="translate(-1 -1)" fill="#207dff"/><path d="M56,39.61a6,6,0,0,1,2.2,8.21l-.16.26-.13.19,0,.05-.08.11,0,0-.07.09-.18.21-.09.1,0,0-.09.09,0,0-.09.08-.06.05,0,0-.11.1-.11.09,0,0-.19.15-.11.08-.06,0-.09.06-.16.1L56,50a6,6,0,0,1-6,0l0,0a6,6,0,0,0,6,10.39l0,0,.08,0,.14-.09A12,12,0,0,0,56,39.61Z" transform="translate(-1 -1)" fill="#010059"/></svg>