<svg xmlns="http://www.w3.org/2000/svg" width="486.11" height="486.11" viewBox="0 0 486.11 486.11"><title>hannunvaakuna</title><path d="M250.39,17.89a233.12,233.12,0,0,1,90.71,447.8A233.12,233.12,0,0,1,159.68,36.2a231.59,231.59,0,0,1,90.71-18.31m0-10C116.15,7.89,7.33,116.71,7.33,250.94S116.15,494,250.39,494,493.44,385.18,493.44,250.94,384.62,7.89,250.39,7.89Z" transform="translate(-7.33 -7.89)"/><path d="M250.39,27.94a223.06,223.06,0,0,1,86.8,428.48,223.06,223.06,0,0,1-173.6-411,221.6,221.6,0,0,1,86.8-17.52m0-5c-125.92,0-228,102.08-228,228s102.08,228,228,228,228-102.08,228-228-102.08-228-228-228Z" transform="translate(-7.33 -7.89)"/><path d="M250.64,213.88a37,37,0,0,0-37,37c0-.32,0-.64,0-1s0-.63.07-.94a18.53,18.53,0,0,1,18.43-16.63l1,0,.75.06.42,0,.67.08.87.15.08,0,.51.11.33.08.25.06.27.08.3.09.56.18.56.2.55.22.54.24c.36.16.71.33,1.06.51l.06,0,.45.25a18.52,18.52,0,0,1,9.37,16.1s0,.08,0,.12a18.53,18.53,0,0,0,18.42-32.15l-.09-.06A36.78,36.78,0,0,0,250.64,213.88Zm7.88,2.52h.07l-.66.07Z" transform="translate(-7.33 -7.89)" fill="#207dff"/><path d="M232.19,232.33a18.53,18.53,0,0,0-18.52,18.52A37,37,0,0,0,269,282.93l-.75.41-.08,0-.25.12c-.48.23-1,.44-1.45.63l-.78.28-.08,0-.8.25-.08,0c-.56.15-1.13.28-1.7.38l-.91.13-.29,0-.66.07-.89,0c-.5,0-1,0-1.5,0h-.23l-.57-.06-.38,0-.83-.11h0c-.34-.06-.67-.13-1-.21s-.94-.23-1.41-.38l-.13,0h0q-.83-.27-1.63-.61h0l-.29-.13-.52-.25-.76-.4h0l-.35-.21-.42-.25-.74-.47h0c-.24-.16-.47-.34-.71-.52h0l-.41-.32L248,281c-.23-.19-.45-.38-.67-.59h0c-.44-.41-.87-.84-1.27-1.29h0c-.2-.23-.39-.46-.59-.7h0l-.13-.18-.42-.57c-.18-.25-.36-.51-.53-.77s-.34-.53-.5-.81l-.3-.55-.07-.12-.14-.27c-.12-.24-.24-.49-.35-.74l-.23-.53-.13-.33c-.08-.2-.16-.4-.23-.6l-.07-.2c-.06-.19-.12-.38-.18-.58s-.08-.24-.11-.37l0-.12c0-.11-.07-.23-.09-.34l-.08-.32c0-.19-.08-.38-.12-.58-.12-.58-.2-1.16-.25-1.75,0-.39-.07-.78-.08-1.17,0-.2,0-.39,0-.59a18.53,18.53,0,0,1,9.15-16.1l.1.07.1.06s0-.08,0-.12A18.53,18.53,0,0,0,232.19,232.33Z" transform="translate(-7.33 -7.89)" fill="#ffa900"/><path d="M269.13,218.83a18.53,18.53,0,0,1,6.78,25.31c-.16.28-.33.55-.5.81l-.4.59-.11.16-.25.34-.11.15-.23.29c-.18.22-.36.43-.55.64l-.27.3-.12.14-.28.29L273,248l-.26.25-.17.16-.08.08-.35.31-.34.29-.11.09-.59.46-.34.25-.19.13-.29.2-.49.32-.5.3a18.5,18.5,0,0,1-18.62.07l-.1-.07a18.53,18.53,0,0,0,18.63,32l.13-.08.25-.15.43-.26a37,37,0,0,0-.81-63.55Z" transform="translate(-7.33 -7.89)" fill="#8d309b"/><path d="M250,215.67A34.33,34.33,0,1,1,215.67,250,34.37,34.37,0,0,1,250,215.67m0-10A44.33,44.33,0,1,0,294.33,250,44.33,44.33,0,0,0,250,205.67Z" transform="translate(-7.33 -7.89)"/><path d="M250,190a60,60,0,1,1-60,60,60.07,60.07,0,0,1,60-60m0-8a68,68,0,1,0,68,68,68,68,0,0,0-68-68Z" transform="translate(-7.33 -7.89)"/><path d="M250,199a51,51,0,1,1-51,51,51.06,51.06,0,0,1,51-51m0-4a55,55,0,1,0,55,55,55,55,0,0,0-55-55Z" transform="translate(-7.33 -7.89)" fill="#010059"/><path d="M415,129a45,45,0,0,1-45,45H179V164H370a35,35,0,1,0-35-35v16H325V129a45,45,0,0,1,90,0Z" transform="translate(-7.33 -7.89)" fill="#010059"/><path d="M400,129a30,30,0,0,1-30,30H179V149H370a20,20,0,1,0-20-20v16H340V129a30,30,0,0,1,60,0Z" transform="translate(-7.33 -7.89)" fill="#010059"/><path d="M175,128.5V317H165V128.5A35,35,0,1,0,130,164h16v10H130a45.19,45.19,0,1,1,45-45.5Z" transform="translate(-7.33 -7.89)" fill="#207dff"/><rect x="157.67" y="352.11" width="10" height="19" fill="#207dff"/><path d="M160,128.5V317H150V128.5a20,20,0,0,0-20-20,20.25,20.25,0,0,0,0,40.5h16v10H130a30.19,30.19,0,0,1,0-60.37A29.89,29.89,0,0,1,160,128.5Z" transform="translate(-7.33 -7.89)" fill="#207dff"/><rect x="142.67" y="352.11" width="10" height="19" fill="#207dff"/><path d="M95.5,368a34.75,34.75,0,1,0,69.5,0V352h10v16a44.81,44.81,0,1,1-44.5-45H321v10H130.5A35,35,0,0,0,95.5,368Z" transform="translate(-7.33 -7.89)" fill="#8d309b"/><path d="M110.5,368a19.75,19.75,0,1,0,39.5,0V352h10v16a29.81,29.81,0,1,1-59.62,0,30.11,30.11,0,0,1,30.13-30H321v10H130.5A20,20,0,0,0,110.5,368Z" transform="translate(-7.33 -7.89)" fill="#8d309b"/><path d="M415,367.75a45,45,0,0,1-90-.25V179h10V367.5A35,35,0,1,0,370,333H354V323h16A44.79,44.79,0,0,1,415,367.75Z" transform="translate(-7.33 -7.89)" fill="#ffa900"/><path d="M400,367.75a30,30,0,0,1-60-.25V179h10V367.5a20,20,0,0,0,20,20,19.75,19.75,0,1,0,0-39.5H354V338h16A29.79,29.79,0,0,1,400,367.75Z" transform="translate(-7.33 -7.89)" fill="#ffa900"/><polygon points="235.67 388.11 247.67 388.11 247.67 374.11 258.67 374.11 258.67 368.11 247.67 368.11 247.67 346.11 235.67 346.11 235.67 368.11 223.67 368.11 223.67 374.11 235.67 374.11 235.67 388.11" fill="#8d309b"/><rect x="244.17" y="400.43" width="11.66" height="11.66" transform="translate(-221.38 287.88) rotate(-45)" fill="#8d309b"/><path d="M255,433.28V418H243v15.25C227,434.7,213.49,443,210.48,458h11.81C225,447,233,442.72,243,441.71V465h12V441.74c11,1.06,19.73,5.26,22.38,16.26h11.81C286.19,443,272,434.8,255,433.28Z" transform="translate(-7.33 -7.89)" fill="#8d309b"/><polygon points="389.67 249.11 389.67 237.11 375.67 237.11 375.67 226.11 369.67 226.11 369.67 237.11 347.67 237.11 347.67 249.11 369.67 249.11 369.67 261.11 375.67 261.11 375.67 249.11 389.67 249.11" fill="#ffa900"/><rect x="403.76" y="244.5" width="11.66" height="11.66" transform="translate(-64.38 355.05) rotate(-45)" fill="#ffa900"/><path d="M436.61,245H419v12h17.58C438,274,445,286.84,459,289.86V278c-10-2.68-13-10-14-21h21V245H445.07c1.06-10,3.93-19.4,13.93-22V211.14C445,214.14,438.14,229,436.61,245Z" transform="translate(-7.33 -7.89)" fill="#ffa900"/><polygon points="93.67 238.11 93.67 250.11 107.67 250.11 107.67 261.11 113.67 261.11 113.67 250.11 135.67 250.11 135.67 238.11 113.67 238.11 113.67 226.11 107.67 226.11 107.67 238.11 93.67 238.11" fill="#207dff"/><rect x="84.58" y="244.84" width="11.66" height="11.66" transform="translate(-158.1 129.46) rotate(-45)" fill="#207dff"/><path d="M63.39,258H79V246H63.42C62,229,53,214.16,39,211.14V223c10,2.68,15,12,16,23H32v12H54.93C53.86,268,49,275.4,39,278v11.81C53,286.86,61.86,274,63.39,258Z" transform="translate(-7.33 -7.89)" fill="#207dff"/><polygon points="247.67 95.11 235.67 95.11 235.67 109.11 224.67 109.11 224.67 115.11 235.67 115.11 235.67 137.11 247.67 137.11 247.67 115.11 259.67 115.11 259.67 109.11 247.67 109.11 247.67 95.11" fill="#010059"/><rect x="243.84" y="84.91" width="11.66" height="11.66" transform="translate(1.63 195.23) rotate(-45)" fill="#010059"/><path d="M243,63.72V81h12V63.75C272,62.3,286.17,55,289.19,41H277.38C274.7,51,265,54.28,255,55.29V34H243V55.26C232,54.2,224.94,51,222.29,41H210.48C213.47,55,226,62.2,243,63.72Z" transform="translate(-7.33 -7.89)" fill="#010059"/></svg>