<svg xmlns="http://www.w3.org/2000/svg" viewBox="0 0 80 80"><defs><style>.cls-1{fill:#8d309b;}.cls-2{fill:#1a1a1a;}.cls-3{fill:#fff;}.cls-4{fill:#207dff;}</style></defs><title>mksymbol10</title><g id="Layer_5_copy_2" data-name="Layer 5 copy 2"><rect class="cls-1" x="46.9" y="2.49" width="6.2" height="95.02" rx="3" ry="3" transform="translate(110.71 40) rotate(135)"/><rect class="cls-1" x="46.9" y="2.49" width="6.2" height="95.02" rx="3" ry="3" transform="translate(40 110.71) rotate(-135)"/><circle class="cls-1" cx="40" cy="40" r="40"/><circle class="cls-2" cx="40" cy="40" r="35"/><circle class="cls-3" cx="40" cy="40" r="30"/><path class="cls-3" d="M50.25,65V35a15,15,0,0,0,0,30Z" transform="translate(-10 -10)"/></g><g id="Layer_5_copy_3" data-name="Layer 5 copy 3"><rect class="cls-1" x="46.9" y="2.49" width="6.2" height="95.02" rx="3" ry="3" transform="translate(110.71 40) rotate(135)"/><rect class="cls-1" x="46.9" y="2.49" width="6.2" height="95.02" rx="3" ry="3" transform="translate(40 110.71) rotate(-135)"/><circle class="cls-1" cx="40" cy="40" r="40"/><circle class="cls-2" cx="40" cy="40" r="35"/><circle class="cls-3" cx="40" cy="40" r="30"/><path class="cls-4" d="M50,25V75a25,25,0,0,0,0-50Z" transform="translate(-10 -10)"/><circle class="cls-2" cx="40" cy="40" r="20"/><path class="cls-3" d="M34.75,50h30a15,15,0,0,0-30,0Z" transform="translate(-10 -10)"/></g></svg>