<svg xmlns="http://www.w3.org/2000/svg" viewBox="0 0 80 80"><defs><style>.cls-1{fill:#8d309b;}.cls-2{fill:#207dff;}.cls-3{fill:#1a1a1a;}.cls-4{fill:#fff;}</style></defs><title>mksymbol11</title><g id="Layer_5_copy_3" data-name="Layer 5 copy 3"><path class="cls-1" d="M81.41,86.54a5,5,0,0,1-3.54-1.46L14.92,22.13a5,5,0,0,1,0-7.07l.14-.14a5,5,0,0,1,7.07,0l63,63a5,5,0,0,1,0,7.07l-.14.14A5,5,0,0,1,81.41,86.54Z" transform="translate(-10 -10)"/><path class="cls-2" d="M18.59,15.46a3,3,0,0,1,2.13.87l63,63a3,3,0,0,1,0,4.25l-.14.14a3,3,0,0,1-4.25,0L16.33,20.72a3,3,0,0,1,0-4.25l.14-.14a3,3,0,0,1,2.12-.87m0-4a6.92,6.92,0,0,0-4.94,2l-.14.14a7,7,0,0,0,0,9.89l63,63a7,7,0,0,0,9.89,0l.14-.14a7,7,0,0,0,0-9.89L23.54,13.51a6.94,6.94,0,0,0-4.95-2Z" transform="translate(-10 -10)"/><circle class="cls-1" cx="40" cy="40" r="40"/><circle class="cls-3" cx="40" cy="40" r="35"/><circle class="cls-4" cx="40" cy="40" r="30"/><path class="cls-2" d="M50,25V75a25,25,0,0,0,0-50Z" transform="translate(-10 -10)"/><path class="cls-2" d="M25,50H75a25,25,0,0,0-50,0Z" transform="translate(-10 -10)"/><circle class="cls-3" cx="40" cy="40" r="20"/><path class="cls-4" d="M34.75,50h30a15,15,0,0,0-30,0Z" transform="translate(-10 -10)"/></g></svg>