<svg xmlns="http://www.w3.org/2000/svg" viewBox="0 0 80 80"><defs><style>.cls-1{fill:#8d309b;}.cls-2{fill:#1a1a1a;}.cls-3{fill:#fff;}.cls-4{fill:#207dff;}</style></defs><title>mksymbol9</title><g id="Layer_5_copy_2" data-name="Layer 5 copy 2"><rect class="cls-1" x="46.9" y="2.49" width="6.2" height="95.02" rx="3" ry="3" transform="translate(110.71 40) rotate(135)"/><rect class="cls-1" x="46.9" y="2.49" width="6.2" height="95.02" rx="3" ry="3" transform="translate(40 110.71) rotate(-135)"/><circle class="cls-1" cx="40" cy="40" r="40"/><circle class="cls-2" cx="40" cy="40" r="35"/><circle class="cls-3" cx="40" cy="40" r="30"/><circle class="cls-4" cx="40" cy="40" r="21.5"/><path class="cls-2" d="M50,30A20,20,0,1,1,30,50,20,20,0,0,1,50,30m0-3A23,23,0,1,0,73,50,23,23,0,0,0,50,27Z" transform="translate(-10 -10)"/><path class="cls-3" d="M50.25,65V35a15,15,0,0,0,0,30Z" transform="translate(-10 -10)"/></g></svg>